<?xml version="1.0" encoding="UTF-8" standalone="no"?>
<!DOCTYPE svg PUBLIC "-//W3C//DTD SVG 1.1//EN" "http://www.w3.org/Graphics/SVG/1.1/DTD/svg11.dtd">
<svg version="1.1" xmlns="http://www.w3.org/2000/svg" xmlns:xlink="http://www.w3.org/1999/xlink" preserveAspectRatio="xMidYMid meet" viewBox="253.94326437527405 308.32247851650834 170.0652550109076 175.08371079514382" width="166.07" height="171.08"><defs><path d="M379.58 324.93L364.88 344.75L367.27 345.3L370.28 346.09L373.23 346.96L376.12 347.89L378.94 348.9L381.7 349.97L384.39 351.11L387 352.32L389.54 353.59L392 354.92L394.38 356.31L396.68 357.76L398.89 359.27L401.01 360.83L403.04 362.44L404.98 364.1L406.82 365.82L408.56 367.58L410.2 369.38L411.73 371.23L413.16 373.13L414.48 375.06L415.68 377.03L416.77 379.04L417.74 381.08L418.59 383.16L419.32 385.27L419.92 387.41L420.39 389.58L420.73 391.77L420.94 393.99L421.01 396.23L420.94 398.47L420.73 400.69L420.39 402.89L419.92 405.06L419.32 407.19L418.59 409.3L417.74 411.38L416.77 413.43L415.68 415.43L414.48 417.41L413.16 419.34L411.73 421.23L410.2 423.08L408.56 424.89L406.82 426.65L404.98 428.36L403.04 430.03L401.01 431.64L398.89 433.2L396.68 434.71L394.38 436.15L392 437.55L389.54 438.88L387 440.15L384.39 441.35L381.7 442.49L378.94 443.57L376.12 444.57L373.23 445.51L370.88 446.2L395.89 480.41L349.49 460.36L325.6 450.04L324.52 449.94L321.25 449.55L318.03 449.07L314.86 448.51L311.74 447.88L308.68 447.16L305.67 446.37L302.72 445.51L299.83 444.57L297.01 443.57L294.25 442.49L291.57 441.35L288.95 440.15L286.41 438.88L283.95 437.55L281.57 436.15L279.27 434.71L277.06 433.2L274.94 431.64L272.91 430.03L270.97 428.36L269.13 426.65L267.39 424.89L265.75 423.08L264.22 421.23L262.79 419.34L261.47 417.41L260.27 415.43L259.18 413.43L258.21 411.38L257.36 409.3L256.63 407.19L256.03 405.06L255.56 402.89L255.22 400.69L255.01 398.47L254.94 396.23L255.01 393.99L255.22 391.77L255.56 389.58L256.03 387.41L256.63 385.27L257.36 383.16L258.21 381.08L259.18 379.04L260.27 377.03L261.47 375.06L262.79 373.13L264.22 371.23L265.75 369.38L267.39 367.58L269.13 365.82L270.97 364.1L272.91 362.44L274.94 360.83L277.06 359.27L279.27 357.76L281.57 356.31L283.95 354.92L286.41 353.59L288.95 352.32L291.57 351.11L294.25 349.97L297.01 348.9L299.83 347.89L302.72 346.96L305.67 346.09L308.58 345.33L293.45 324.93L325.46 333.54L325.46 309.32L347.53 309.32L347.53 333.55L379.58 324.93ZM328.05 405.87L344.79 405.87L344.79 405.78L384.43 375.16L375.17 363.18L344.79 386.64L344.79 362.24L328.05 362.24L328.05 405.87Z" id="bpjGIvpj1"></path></defs><g><g><use xlink:href="#bpjGIvpj1" opacity="1" fill="#c20006" fill-opacity="1"></use></g></g></svg>